<svg viewBox="0 0 210 52" fill="none" xmlns="http://www.w3.org/2000/svg">
<path d="M1.03654 27.7138C0.761135 27.6937 0.521517 27.9006 0.501337 28.176C0.481157 28.4514 0.688056 28.691 0.963461 28.7112L1.03654 27.7138ZM88.8638 1.21159L88.8309 1.71051L88.8638 1.21159ZM210 48.6682L204.815 46.1294L205.209 51.8895L210 48.6682ZM0.963461 28.7112C20.3105 30.1288 30.4953 22.4928 41.7107 15.0021C47.3153 11.2589 53.1729 7.55288 60.5866 4.97163C67.9952 2.39214 76.9802 0.928832 88.8309 1.71051L88.8967 0.712678C76.9238 -0.0770601 67.8036 1.39999 60.2578 4.02723C52.7171 6.65271 46.7712 10.4198 41.1553 14.1706C29.9297 21.668 20.0061 29.1038 1.03654 27.7138L0.963461 28.7112ZM88.8309 1.71051C117.523 3.60303 136.194 15.7826 152.937 27.3932C169.658 38.9891 184.542 50.0973 205.527 49.475L205.497 48.4754C184.901 49.0862 170.296 38.2146 153.506 26.5715C136.738 14.943 117.876 2.62416 88.8967 0.712678L88.8309 1.71051Z" fill="#6C63FF"/>
</svg>
