<svg viewBox="0 0 331 124" fill="none" xmlns="http://www.w3.org/2000/svg">
<path d="M0.790866 68.0032C0.516554 67.9715 0.268451 68.1681 0.236712 68.4425C0.204973 68.7168 0.401618 68.9649 0.675931 68.9966L0.790866 68.0032ZM139.466 1.1816L139.414 1.6789L139.466 1.1816ZM330.733 119.5L325.402 117.285L326.149 123.01L330.733 119.5ZM0.675931 68.9966C31.2144 72.53 47.2615 53.513 64.9378 34.8714C73.7954 25.5301 83.0676 16.2665 94.7988 9.81694C106.515 3.3759 120.706 -0.269582 139.414 1.6789L139.518 0.684285C120.609 -1.28506 106.213 2.40033 94.3171 8.94064C82.4361 15.4724 73.071 24.8406 64.2121 34.1833C46.4553 52.9099 30.7524 71.4699 0.790866 68.0032L0.675931 68.9966ZM139.414 1.6789C185.334 6.46164 215.028 37.6003 241.763 66.9199C255.112 81.5587 267.738 95.7585 281.257 105.896C294.791 116.045 309.267 122.16 326.322 120.58L326.23 119.584C309.501 121.134 295.267 115.152 281.857 105.096C268.431 95.0283 255.877 80.9136 242.502 66.2461C215.791 36.9529 185.863 5.51126 139.518 0.684285L139.414 1.6789Z" fill="#6C63FF"/>
</svg>
