<svg viewBox="0 0 238 38" fill="none" xmlns="http://www.w3.org/2000/svg">
<path d="M238 32.6909L232.513 30.895L233.701 36.5449L238 32.6909ZM131.145 14.9175L131.382 14.4773L131.145 14.9175ZM56.2543 2.86419L56.1598 2.37322L56.2543 2.86419ZM0.816971 24.8711C0.559998 24.9722 0.433625 25.2624 0.534714 25.5194C0.635804 25.7764 0.926071 25.9028 1.18304 25.8017L0.816971 24.8711ZM233.491 33.1282C224.446 35.0633 212.242 37.569 195.646 36.0141C179.048 34.4589 158.028 28.8387 131.382 14.4773L130.907 15.3576C157.654 29.773 178.802 35.4403 195.553 37.0097C212.305 38.5793 224.63 36.0465 233.701 34.1061L233.491 33.1282ZM131.382 14.4773C118.103 7.32045 89.1949 -3.99006 56.1598 2.37322L56.3489 3.35517C89.071 -2.94782 117.737 8.25917 130.907 15.3576L131.382 14.4773ZM56.1598 2.37322C41.6229 5.17333 29.9731 9.94148 20.856 14.4415C16.2992 16.6907 12.3733 18.8739 9.0442 20.7064C5.70412 22.545 2.9879 24.0171 0.816971 24.8711L1.18304 25.8017C3.42636 24.9192 6.20387 23.4114 9.52643 21.5825C12.86 19.7475 16.7656 17.5757 21.2986 15.3383C30.3612 10.8651 41.9243 6.13365 56.3489 3.35517L56.1598 2.37322Z" fill="#6C63FF"/>
</svg>
