<svg viewBox="0 0 330 90" fill="none" xmlns="http://www.w3.org/2000/svg">
<path d="M329.733 11.5334L324.045 12.5186L326.036 7.09935L329.733 11.5334ZM181.398 54.9795L181.742 55.3422L181.398 54.9795ZM77.4367 84.4431L77.2761 84.9166L77.4367 84.4431ZM0.44867 29.9221C0.22168 29.7649 0.165131 29.4534 0.322388 29.2264C0.479615 28.9994 0.791108 28.9428 1.0181 29.1001L0.44867 29.9221ZM325.33 10.4481C312.897 5.76993 295.98 -0.966996 272.701 2.41557C249.418 5.79871 219.699 19.3196 181.742 55.3422L181.054 54.6169C219.104 18.5057 249.004 4.84833 272.557 1.42596C296.114 -1.99699 313.248 4.83327 325.682 9.51213L325.33 10.4481ZM181.742 55.3422C163.352 72.7958 123.196 100.492 77.2761 84.9166L77.5973 83.9696C122.961 99.3562 162.728 72.0096 181.054 54.6169L181.742 55.3422ZM77.2761 84.9166C57.0885 78.0693 40.9201 66.4135 28.2765 55.4243C21.955 49.9301 16.5091 44.5972 11.887 40.1171C7.25171 35.6242 3.47125 32.0158 0.44867 29.9221L1.0181 29.1001C4.12335 31.2511 7.96924 34.927 12.5829 39.399C17.2098 43.8838 22.6355 49.1965 28.9325 54.6695C41.5256 65.6149 57.581 77.1803 77.5973 83.9696L77.2761 84.9166Z" fill="#6C63FF"/>
</svg>
