<svg viewBox="0 0 242 171" fill="none" xmlns="http://www.w3.org/2000/svg">
<path d="M240.855 0.747764C241.131 0.752547 241.351 0.980254 241.347 1.25635C241.342 1.53245 241.114 1.7524 240.838 1.74761L240.855 0.747764ZM157.194 81.2081L157.654 81.4029L157.194 81.2081ZM0.948454 167.809L5.5229 164.287L6.28621 170.01L0.948454 167.809ZM240.838 1.74761C228.237 1.52918 215.28 3.00832 201.571 13.7041C187.834 24.421 173.292 44.4293 157.654 81.4029L156.733 81.0133C172.398 43.9777 187.022 23.7863 200.956 12.9156C214.917 2.02375 228.135 0.527277 240.855 0.747764L240.838 1.74761ZM157.654 81.4029C147.002 106.588 137.896 136.969 96.2032 154.741L95.8111 153.821C137.077 136.231 146.053 106.263 156.733 81.0133L157.654 81.4029ZM96.2032 154.741C76.2752 163.235 61.8685 165.486 48.2843 166.108C34.6714 166.731 22.0618 165.724 5.47261 167.71L5.35378 166.717C21.9696 164.728 34.7894 165.724 48.2386 165.109C61.7163 164.492 76.0041 162.264 95.8111 153.821L96.2032 154.741Z" fill="#6C63FF"/>
</svg>
