<svg viewBox="0 0 328 228" fill="none" xmlns="http://www.w3.org/2000/svg">
<path d="M326.734 0.499961C327.01 0.499958 327.234 0.723814 327.234 0.999963C327.234 1.2761 327.01 1.49996 326.734 1.49996L326.734 0.499961ZM212.552 108.028L213.009 108.231L212.552 108.028ZM0.717916 225.44L5.23204 221.841L6.09219 227.55L0.717916 225.44ZM326.734 1.49996C309.792 1.49998 292.305 3.74353 273.597 18.1559C254.864 32.5878 234.86 59.2573 213.009 108.231L212.096 107.824C233.975 58.7872 254.062 31.9429 272.987 17.3637C291.937 2.76489 309.675 0.499982 326.734 0.499961L326.734 1.49996ZM213.009 108.231C198.121 141.599 185.223 181.67 128.902 205.947L128.507 205.029C184.417 180.928 197.182 141.248 212.096 107.824L213.009 108.231ZM128.902 205.947C101.653 217.694 82.1379 220.916 63.7124 222.005C45.2648 223.096 28.0688 222.05 5.23131 225.266L5.09188 224.275C27.9683 221.055 45.3532 222.089 63.6534 221.007C81.9756 219.924 101.375 216.724 128.507 205.029L128.902 205.947Z" fill="#6C63FF"/>
</svg>
