<svg viewBox="0 0 28 117" fill="none" xmlns="http://www.w3.org/2000/svg">
<path d="M13.8927 1.03293C13.9109 0.75739 13.7022 0.519274 13.4267 0.501085C13.1511 0.482896 12.913 0.691523 12.8948 0.967066L13.8927 1.03293ZM26.8942 49.7665L26.3951 49.7368L26.8942 49.7665ZM3.16592 117L5.88612 111.907L0.115765 112.098L3.16592 117ZM12.8948 0.967066C12.1817 11.771 16.0317 17.472 19.7784 23.699C21.6481 26.8066 23.4902 30.04 24.7732 34.1304C26.055 38.2171 26.7847 43.1803 26.3951 49.7368L27.3933 49.7962C27.7894 43.1301 27.0489 38.0444 25.7274 33.8311C24.407 29.6215 22.5125 26.3036 20.6353 23.1835C16.8879 16.9553 13.202 11.4956 13.8927 1.03293L12.8948 0.967066ZM26.3951 49.7368C25.4797 65.142 19.7382 75.3237 14.0994 84.396C8.47107 93.4513 2.87008 101.492 2.5176 112.483L3.51708 112.515C3.85917 101.848 9.27367 94.0543 14.9487 84.9239C20.6132 75.8103 26.4629 65.4549 27.3933 49.7962L26.3951 49.7368Z" fill="#6C63FF"/>
</svg>
