<svg viewBox="0 0 28 117" fill="none" xmlns="http://www.w3.org/2000/svg">
<path d="M14.1073 1.03293C14.0891 0.75739 14.2978 0.519274 14.5733 0.501085C14.8489 0.482896 15.087 0.691523 15.1052 0.967066L14.1073 1.03293ZM1.1058 49.7665L1.60492 49.7368L1.1058 49.7665ZM24.8341 117L22.1139 111.907L27.8842 112.098L24.8341 117ZM15.1052 0.967066C15.8183 11.771 11.9683 17.472 8.22161 23.699C6.35188 26.8066 4.50977 30.04 3.2268 34.1304C1.94497 38.2171 1.21532 43.1803 1.60492 49.7368L0.606679 49.7962C0.210572 43.1301 0.951104 38.0444 2.27263 33.8311C3.59302 29.6215 5.48746 26.3036 7.36475 23.1835C11.1121 16.9553 14.798 11.4956 14.1073 1.03293L15.1052 0.967066ZM1.60492 49.7368C2.52031 65.142 8.2618 75.3237 13.9006 84.396C19.5289 93.4513 25.1299 101.492 25.4824 112.483L24.4829 112.515C24.1408 101.848 18.7263 94.0543 13.0513 84.9239C7.3868 75.8103 1.53714 65.4549 0.606679 49.7962L1.60492 49.7368Z" fill="#6C63FF"/>
</svg>
