<svg xmlns="http://www.w3.org/2000/svg" width="57" height="24" fill="none"><path fill="#fff" d="M10.47 22.24c4.41 0 8.34-2.43 9.45-6.54.12-.42-.12-.66-.54-.66h-3.57c-.33 0-.54.15-.69.48-.69 1.71-2.52 2.64-4.65 2.64-3.3 0-5.97-2.34-5.97-6.42 0-4.05 2.67-6.39 5.97-6.39 2.1 0 3.93.93 4.65 2.61.15.33.36.48.69.48h3.54c.42 0 .66-.24.54-.66-1.14-4.05-4.92-6.51-9.39-6.51C4.8 1.27 0 5.29 0 11.74c0 6.36 4.68 10.5 10.47 10.5ZM21.357 1.6c-.39 0-.6.21-.6.6v2.88c0 .39.21.6.6.6h4.92V21.4c0 .39.21.6.6.6h3.3c.39 0 .6-.21.6-.6V5.68h4.92c.39 0 .6-.21.6-.6V2.2c0-.39-.21-.6-.6-.6h-14.34Z"/><g fill="#fff" clip-path="url(#a)"><path d="M43.196 22h-3.968a.237.237 0 0 1-.24-.234V1.576c0-.13.107-.234.24-.234h4.208v20.424a.237.237 0 0 1-.24.234Z"/><path d="M42.285 11.846h3.881l.937-3.676h-3.881l-.937 3.676Z"/><path d="M43.497 11.846h3.881l.938-3.676h-3.882l-.937 3.676Z"/><path d="M47.585 10.504h3.65c.135 0 .254-.09.287-.218l.88-3.458h-3.88l-.937 3.676ZM42.175 5.019h3.881l.937-3.677h-3.882l-.936 3.677Z"/><path d="M44.88 5.019h4.357l1.052-3.677h-4.357L44.88 5.019Z"/><path d="M49.693 3.676h4.26a.093.093 0 0 0 .09-.066l.969-3.315a.233.233 0 0 0-.23-.295h-4.067a.093.093 0 0 0-.09.066L49.603 3.56c-.018.059.028.116.09.116Z"/></g><defs><clipPath id="a"><path fill="#fff" d="M39 0h16v22H39z"/></clipPath></defs></svg>