<svg width="33" height="14" viewBox="0 0 33 14" fill="none" xmlns="http://www.w3.org/2000/svg">
<path d="M6.06158 12.9733C8.61474 12.9733 10.89 11.5558 11.5326 9.15832C11.6021 8.91332 11.4632 8.77332 11.22 8.77332H9.15316C8.96211 8.77332 8.84053 8.86082 8.75368 9.05332C8.35421 10.0508 7.29474 10.5933 6.06158 10.5933C4.15105 10.5933 2.60526 9.22832 2.60526 6.84832C2.60526 4.48581 4.15105 3.12081 6.06158 3.12081C7.27737 3.12081 8.33684 3.66331 8.75368 4.64331C8.84053 4.83581 8.96211 4.92332 9.15316 4.92332H11.2026C11.4458 4.92332 11.5847 4.78332 11.5153 4.53831C10.8553 2.17581 8.66684 0.740814 6.07895 0.740814C2.77895 0.740814 0 3.08581 0 6.84832C0 10.5583 2.70947 12.9733 6.06158 12.9733Z" fill="white"/>
<path d="M12.3644 0.933315C12.1386 0.933315 12.017 1.05581 12.017 1.28331V2.96331C12.017 3.19082 12.1386 3.31331 12.3644 3.31331H15.2128C15.2128 3.31331 15.2128 5.01956 15.2128 6.62082V12.4833C15.2128 12.7108 15.3344 12.8333 15.5602 12.8333H17.4707C17.6965 12.8333 17.8181 12.7108 17.8181 12.4833V3.31331H20.6665C20.8923 3.31331 21.0139 3.19082 21.0139 2.96331V1.28331C21.0139 1.05581 20.8923 0.933315 20.6665 0.933315H12.3644Z" fill="white"/>
<g clip-path="url(#clip0_279_394)">
<path d="M25.0081 12.8333H22.7109C22.634 12.8333 22.5716 12.7723 22.5716 12.697V0.919127C22.5716 0.843924 22.634 0.782837 22.7109 0.782837H25.1472V12.697C25.1472 12.7723 25.085 12.8333 25.0081 12.8333Z" fill="white"/>
<path d="M24.4807 6.91023H26.7277L27.2701 4.76578H25.0231L24.4807 6.91023Z" fill="white"/>
<path d="M25.1826 6.91023H27.4296L27.9723 4.76578H25.725L25.1826 6.91023Z" fill="white"/>
<path d="M27.549 6.12739H29.662C29.7407 6.12739 29.8094 6.07477 29.8283 6.00008L30.3385 3.98294H28.0912L27.549 6.12739Z" fill="white"/>
<path d="M24.4169 2.92754H26.6642L27.2066 0.782837H24.9593L24.4169 2.92754Z" fill="white"/>
<path d="M25.983 2.92754H28.5058L29.1148 0.782837H26.592L25.983 2.92754Z" fill="white"/>
<path d="M28.7695 2.14445H31.2354C31.2598 2.14445 31.2811 2.12879 31.2876 2.10569L31.8489 0.171967C31.8741 0.0857267 31.8077 0 31.7161 0H29.3612C29.3368 0 29.3156 0.0156567 29.309 0.0387567L28.7176 2.07695C28.7073 2.11083 28.7336 2.14445 28.7695 2.14445Z" fill="white"/>
</g>
<defs>
<clipPath id="clip0_279_394">
<rect width="9.26316" height="12.8333" fill="white" transform="translate(22.5789)"/>
</clipPath>
</defs>
</svg>
