<svg width="24" height="24" viewBox="0 0 24 24" fill="none" xmlns="http://www.w3.org/2000/svg">
<path d="M20.8125 14.25V19.5C20.8125 19.8481 20.6742 20.1819 20.4281 20.4281C20.1819 20.6742 19.8481 20.8125 19.5 20.8125H4.5C4.1519 20.8125 3.81806 20.6742 3.57192 20.4281C3.32578 20.1819 3.1875 19.8481 3.1875 19.5V14.25C3.1875 14.1008 3.24676 13.9577 3.35225 13.8523C3.45774 13.7468 3.60082 13.6875 3.75 13.6875C3.89918 13.6875 4.04226 13.7468 4.14775 13.8523C4.25324 13.9577 4.3125 14.1008 4.3125 14.25V19.5C4.3125 19.5497 4.33225 19.5974 4.36742 19.6326C4.40258 19.6677 4.45027 19.6875 4.5 19.6875H19.5C19.5497 19.6875 19.5974 19.6677 19.6326 19.6326C19.6677 19.5974 19.6875 19.5497 19.6875 19.5V14.25C19.6875 14.1008 19.7468 13.9577 19.8523 13.8523C19.9577 13.7468 20.1008 13.6875 20.25 13.6875C20.3992 13.6875 20.5423 13.7468 20.6477 13.8523C20.7532 13.9577 20.8125 14.1008 20.8125 14.25ZM11.6025 14.6475C11.708 14.7528 11.8509 14.812 12 14.812C12.1491 14.812 12.292 14.7528 12.3975 14.6475L16.1475 10.8975C16.2469 10.7909 16.301 10.6498 16.2984 10.5041C16.2958 10.3584 16.2368 10.2193 16.1337 10.1163C16.0307 10.0132 15.8916 9.95419 15.7459 9.95162C15.6002 9.94905 15.4591 10.0031 15.3525 10.1025L12.5625 12.8916V3.75C12.5625 3.60082 12.5032 3.45774 12.3977 3.35225C12.2923 3.24676 12.1492 3.1875 12 3.1875C11.8508 3.1875 11.7077 3.24676 11.6023 3.35225C11.4968 3.45774 11.4375 3.60082 11.4375 3.75V12.8916L8.6475 10.1025C8.54087 10.0031 8.39983 9.94905 8.25411 9.95162C8.10838 9.95419 7.96934 10.0132 7.86628 10.1163C7.76322 10.2193 7.70419 10.3584 7.70162 10.5041C7.69905 10.6498 7.75314 10.7909 7.8525 10.8975L11.6025 14.6475Z" fill="white"/>
</svg>
