<svg width="18" height="19" viewBox="0 0 18 19" fill="none" xmlns="http://www.w3.org/2000/svg">
<path d="M11.4 15.5V16.1C11.5591 16.1 11.7117 16.0368 11.8243 15.9243C11.9368 15.8117 12 15.6591 12 15.5H11.4ZM6.6 15.5H6C6 15.6591 6.06321 15.8117 6.17574 15.9243C6.28826 16.0368 6.44087 16.1 6.6 16.1V15.5ZM7.2 18.5H10.8V17.3H7.2V18.5ZM4.296 8.18L4.284 8.264L5.472 8.432L5.4852 8.348L4.296 8.18ZM9 4.1C7.85609 4.09981 6.75052 4.51236 5.88637 5.26188C5.02222 6.0114 4.45752 7.04755 4.296 8.18L5.4852 8.348C5.60624 7.50182 6.02726 6.72771 6.67315 6.1678C7.31903 5.60789 8.14521 5.29976 9 5.3V4.1ZM13.704 8.18C13.5425 7.04755 12.9778 6.0114 12.1136 5.26188C11.2495 4.51236 10.1439 4.09981 9 4.1V5.3C9.85472 5.30001 10.6808 5.60823 11.3266 6.16809C11.9724 6.72796 12.3947 7.50193 12.516 8.348L13.704 8.18ZM13.716 8.264L13.704 8.18L12.516 8.348L12.5268 8.432L13.716 8.264ZM12.768 11.8508C13.524 10.874 13.9056 9.602 13.716 8.264L12.528 8.4332C12.5967 8.90508 12.5694 9.38597 12.4478 9.84704C12.3261 10.3081 12.1126 10.7399 11.82 11.1164L12.768 11.8508ZM10.8 13.58V15.5H12V13.5812H10.8V13.58ZM11.4 14.9H6.6V16.1H11.4V14.9ZM7.2 15.5V13.5812H6V15.5H7.2ZM4.284 8.264C4.19278 8.89489 4.22972 9.53769 4.3926 10.154C4.55549 10.7703 4.84098 11.3474 5.232 11.8508L6.1812 11.1164C5.88861 10.7399 5.67388 10.3081 5.55222 9.84704C5.43056 9.38597 5.40327 8.90388 5.472 8.432L4.284 8.264ZM7.2 13.58C7.2 12.5924 6.6744 11.7524 6.18 11.1152L5.232 11.8508C5.6916 12.4448 6 13.0112 6 13.58H7.2ZM11.82 11.1152C11.3244 11.7536 10.8 12.5924 10.8 13.58H12C12 13.0112 12.3084 12.4448 12.768 11.8508L11.82 11.1152ZM8.4 0.5V2.9H9.6V0.5H8.4ZM0 10.1H2.4V8.9H0V10.1ZM15.6 10.1H18V8.9H15.6V10.1ZM4.0248 4.8752L2.2248 3.0752L1.3752 3.9248L3.1752 5.7248L4.0248 4.8752ZM14.8248 5.7248L16.6248 3.9248L15.7752 3.0752L13.9752 4.8752L14.8248 5.7248Z" fill="black"/>
</svg>
