<svg width="572" height="398" viewBox="0 0 572 398" fill="none" xmlns="http://www.w3.org/2000/svg">
<g clip-path="url(#clip0_80_858)">
<path d="M113.967 398C176.91 398 227.934 394.124 227.934 389.344C227.934 384.563 176.91 380.687 113.967 380.687C51.0249 380.687 0 384.563 0 389.344C0 394.124 51.0249 398 113.967 398Z" fill="#E6E6E6"/>
<path d="M87.1144 88.3092C106.948 79.8726 131.651 85.2179 155.777 88.9278C156.001 84.4352 158.722 78.9673 155.872 75.833C152.409 72.025 152.728 68.024 154.812 63.9999C160.141 53.7096 152.506 42.7602 144.797 33.6559C143.059 31.6084 140.863 29.9997 138.387 28.9604C135.911 27.9211 133.225 27.4805 130.547 27.6745L116.267 28.6945C112.792 28.9428 109.476 30.2464 106.762 32.431C104.048 34.6156 102.066 37.577 101.081 40.9189C97.6712 45.5567 95.8462 50.1816 96.9952 54.7825C91.8879 58.2731 91.0298 62.4865 93.3248 67.2364C95.2709 70.2272 95.2502 73.1384 93.2363 75.969C90.5914 79.5778 88.5657 83.6018 87.2421 87.8759L87.1144 88.3092Z" fill="#2F2E41"/>
<path d="M558.446 344.065H154.21C150.615 344.065 147.168 342.637 144.626 340.094C142.084 337.552 140.656 334.105 140.656 330.509C287.191 313.478 430.973 313.478 572 330.509C572 334.105 570.572 337.552 568.03 340.094C565.488 342.637 562.041 344.065 558.446 344.065Z" fill="#2F2E41"/>
<path d="M572 331.307L140.656 330.509L190.647 246.387L190.886 245.988V60.592C190.886 58.3417 191.329 56.1134 192.19 54.0343C193.051 51.9553 194.313 50.0662 195.904 48.475C197.495 46.8838 199.384 45.6216 201.463 44.7605C203.542 43.8994 205.77 43.4564 208.02 43.4565H502.243C504.494 43.4564 506.722 43.8994 508.801 44.7605C510.879 45.6216 512.768 46.8838 514.359 48.475C515.951 50.0662 517.213 51.9553 518.074 54.0343C518.935 56.1134 519.378 58.3417 519.378 60.592V247.264L572 331.307Z" fill="#3F3D56"/>
<path d="M207.63 55.4172C206.15 55.4189 204.731 56.0075 203.685 57.0539C202.639 58.1003 202.05 59.519 202.049 60.9988V230.041C202.05 231.521 202.639 232.939 203.685 233.986C204.731 235.032 206.15 235.621 207.63 235.623H505.026C506.506 235.621 507.924 235.032 508.971 233.986C510.017 232.939 510.605 231.521 510.607 230.041V60.9988C510.605 59.519 510.017 58.1003 508.971 57.054C507.924 56.0076 506.506 55.419 505.026 55.4172H207.63Z" fill="white"/>
<path d="M208.876 257.949C208.419 257.95 207.971 258.081 207.586 258.328C207.201 258.574 206.895 258.926 206.703 259.341L191.299 292.831C191.131 293.195 191.058 293.596 191.086 293.996C191.113 294.396 191.241 294.783 191.458 295.121C191.674 295.459 191.972 295.736 192.324 295.929C192.676 296.122 193.071 296.222 193.472 296.222H517.407C517.815 296.222 518.216 296.118 518.572 295.92C518.928 295.721 519.227 295.435 519.442 295.088C519.656 294.741 519.778 294.345 519.796 293.938C519.814 293.53 519.728 293.125 519.546 292.76L502.802 259.271C502.605 258.873 502.3 258.538 501.922 258.304C501.544 258.071 501.108 257.947 500.663 257.949H208.876Z" fill="#2F2E41"/>
<path d="M355.132 52.6263C357.113 52.6263 358.72 51.0198 358.72 49.0381C358.72 47.0564 357.113 45.45 355.132 45.45C353.15 45.45 351.544 47.0564 351.544 49.0381C351.544 51.0198 353.15 52.6263 355.132 52.6263Z" fill="white"/>
<path d="M323.292 302.602C322.766 302.602 322.255 302.776 321.838 303.096C321.42 303.416 321.12 303.864 320.982 304.372L317.118 318.724C317.023 319.079 317.01 319.45 317.081 319.811C317.153 320.171 317.306 320.51 317.529 320.801C317.753 321.093 318.04 321.329 318.369 321.491C318.698 321.654 319.061 321.738 319.428 321.738H392.911C393.292 321.738 393.668 321.647 394.007 321.472C394.346 321.298 394.638 321.044 394.859 320.734C395.08 320.423 395.224 320.064 395.278 319.686C395.332 319.309 395.295 318.924 395.17 318.564L390.203 304.211C390.04 303.741 389.735 303.334 389.33 303.045C388.924 302.757 388.44 302.602 387.942 302.602H323.292Z" fill="#2F2E41"/>
<path d="M519.377 243.198V246.387H190.647L190.894 245.988V243.198H519.377Z" fill="#2F2E41"/>
<path d="M510.209 111.632C541.032 111.632 566.02 86.642 566.02 55.8158C566.02 24.9896 541.032 0 510.209 0C479.385 0 454.397 24.9896 454.397 55.8158C454.397 86.642 479.385 111.632 510.209 111.632Z" fill="#6C63FF"/>
<path d="M533.331 80.1355H487.087C486.241 80.1347 485.43 79.7984 484.832 79.2004C484.234 78.6024 483.898 77.7917 483.897 76.946V49.0381C483.898 48.1925 484.235 47.3817 484.832 46.7838C485.43 46.1859 486.241 45.8495 487.087 45.8486H533.331C534.176 45.8495 534.987 46.1859 535.585 46.7838C536.183 47.3817 536.519 48.1925 536.52 49.0381V76.946C536.519 77.7917 536.183 78.6024 535.585 79.2004C534.987 79.7984 534.176 80.1347 533.331 80.1355ZM487.087 49.0381V76.946H533.333L533.331 49.0381L487.087 49.0381Z" fill="white"/>
<path d="M524.56 49.0383H495.857V36.2804C495.857 27.0398 501.893 20.333 510.208 20.333C518.524 20.333 524.56 27.0398 524.56 36.2804L524.56 49.0383ZM499.046 45.8488H521.371V36.2804C521.371 28.7688 516.781 23.5225 510.209 23.5225C503.636 23.5225 499.046 28.7689 499.046 36.2804L499.046 45.8488Z" fill="white"/>
<path d="M510.209 65.3843C511.97 65.3843 513.398 63.9563 513.398 62.1948C513.398 60.4333 511.97 59.0054 510.209 59.0054C508.447 59.0054 507.019 60.4333 507.019 62.1948C507.019 63.9563 508.447 65.3843 510.209 65.3843Z" fill="white"/>
<path d="M471.247 178.285H241.409C240.28 178.284 239.198 177.835 238.4 177.037C237.603 176.239 237.154 175.157 237.152 174.028V117.011C237.154 115.882 237.603 114.801 238.4 114.003C239.198 113.205 240.28 112.756 241.409 112.754H471.247C472.376 112.756 473.457 113.205 474.255 114.003C475.053 114.801 475.502 115.882 475.503 117.011V174.028C475.502 175.157 475.053 176.239 474.255 177.037C473.457 177.835 472.376 178.284 471.247 178.285ZM241.409 114.457C240.732 114.458 240.082 114.727 239.604 115.206C239.125 115.685 238.856 116.334 238.855 117.011V174.028C238.856 174.706 239.125 175.355 239.604 175.834C240.082 176.312 240.732 176.582 241.409 176.582H471.247C471.924 176.582 472.573 176.312 473.052 175.834C473.531 175.355 473.8 174.706 473.801 174.028V117.011C473.8 116.334 473.531 115.685 473.052 115.206C472.573 114.727 471.924 114.458 471.247 114.457L241.409 114.457Z" fill="#E6E6E6"/>
<path d="M277.121 160.671C286.696 160.671 294.459 152.908 294.459 143.332C294.459 133.756 286.696 125.993 277.121 125.993C267.545 125.993 259.783 133.756 259.783 143.332C259.783 152.908 267.545 160.671 277.121 160.671Z" fill="#E6E6E6"/>
<path d="M317.163 131.773C316.783 131.772 316.407 131.846 316.056 131.991C315.704 132.136 315.385 132.349 315.117 132.618C314.848 132.886 314.635 133.205 314.489 133.556C314.344 133.907 314.269 134.283 314.269 134.663C314.269 135.042 314.344 135.419 314.489 135.769C314.635 136.12 314.848 136.439 315.117 136.708C315.385 136.976 315.704 137.189 316.056 137.334C316.407 137.479 316.783 137.553 317.163 137.552H453.388C454.154 137.552 454.889 137.248 455.431 136.706C455.973 136.164 456.278 135.429 456.278 134.663C456.278 133.896 455.973 133.161 455.431 132.619C454.889 132.077 454.154 131.773 453.388 131.773H317.163Z" fill="#E6E6E6"/>
<path d="M317.163 149.112C316.396 149.112 315.661 149.416 315.12 149.958C314.578 150.5 314.273 151.235 314.273 152.002C314.273 152.768 314.578 153.503 315.12 154.045C315.661 154.587 316.396 154.892 317.163 154.892H375.781C376.547 154.892 377.282 154.587 377.824 154.045C378.366 153.503 378.671 152.768 378.671 152.002C378.671 151.235 378.366 150.5 377.824 149.958C377.282 149.416 376.547 149.112 375.781 149.112H317.163Z" fill="#E6E6E6"/>
<path d="M190.081 150.281L147.594 172.871L147.056 154.046C160.924 151.731 174.117 147.7 186.317 141.137L190.76 130.158C191.245 128.962 192.031 127.912 193.044 127.112C194.056 126.311 195.26 125.788 196.535 125.593C197.811 125.398 199.116 125.539 200.321 126C201.526 126.462 202.59 127.229 203.41 128.226C204.608 129.686 205.207 131.546 205.085 133.43C204.964 135.315 204.13 137.082 202.754 138.375L190.081 150.281Z" fill="#FFB8B8"/>
<path d="M86.2675 280.707C85.9576 279.57 85.8918 278.381 86.0744 277.216C86.2571 276.052 86.6841 274.94 87.3274 273.953L96.6606 259.628C98.8682 256.24 102.255 253.793 106.165 252.761C110.075 251.73 114.229 252.187 117.82 254.045C113.898 260.723 114.445 266.58 119.175 271.671C111.832 275.256 105.045 279.883 99.0244 285.409C97.9253 286.159 96.6631 286.634 95.3429 286.797C94.0228 286.96 92.6828 286.805 91.4347 286.345C90.1867 285.885 89.0666 285.133 88.1678 284.152C87.269 283.172 86.6175 281.99 86.2675 280.707Z" fill="#2F2E41"/>
<path d="M192.017 261.977C190.604 264.331 188.611 266.283 186.227 267.644C183.843 269.006 181.15 269.732 178.405 269.753L116.401 270.223L113.712 254.625L141.14 246.557L118.014 228.808L143.291 199.226L189.203 242.02C191.886 244.521 193.63 247.868 194.142 251.501C194.654 255.133 193.904 258.831 192.017 261.977Z" fill="#2F2E41"/>
<path d="M106.72 368.65H92.1989C79.1611 279.275 65.8899 189.649 105.107 156.197L151.359 163.727L145.443 202.99L119.628 232.573L106.72 368.65Z" fill="#2F2E41"/>
<path d="M119.485 388.897C118.348 389.207 117.158 389.273 115.994 389.09C114.83 388.907 113.718 388.48 112.731 387.837L96.964 385.718C93.576 383.51 91.1288 380.123 90.097 376.213C89.0653 372.303 89.5226 368.149 91.3804 364.557C98.0574 368.479 103.915 367.932 109.005 363.201C112.601 370.463 118.527 370.02 124.186 376.139C124.935 377.238 125.411 378.5 125.574 379.82C125.736 381.14 125.581 382.48 125.121 383.729C124.661 384.977 123.91 386.097 122.929 386.996C121.949 387.895 120.768 388.547 119.485 388.897Z" fill="#2F2E41"/>
<path d="M141.14 96.4951L114.249 90.0409C118.716 80.8984 119.083 70.7254 116.938 59.9209L135.224 59.3831C135.797 72.8188 137.531 85.3711 141.14 96.4951Z" fill="#FFB8B8"/>
<path d="M148.531 179.922C128.955 193.262 115.124 180.378 104.569 160.5C106.035 148.337 103.661 133.78 99.2622 117.964C97.3061 110.988 98.0364 103.532 101.309 97.0675C104.581 90.6036 110.158 85.6015 116.938 83.0488L140.065 92.7303C159.701 108.738 163.566 126.077 156.199 144.364L148.531 179.922Z" fill="#6C63FF"/>
<path d="M92.1989 109.941L70.6863 121.236L108.871 143.826L114.184 156.933C114.539 157.808 114.712 158.746 114.692 159.69C114.672 160.633 114.461 161.563 114.07 162.423C113.679 163.282 113.118 164.053 112.419 164.688C111.721 165.323 110.901 165.809 110.009 166.117C108.994 166.467 107.913 166.577 106.849 166.439C105.785 166.301 104.767 165.918 103.875 165.321C102.984 164.724 102.242 163.929 101.71 162.998C101.177 162.067 100.866 161.024 100.803 159.953L100.266 150.819L51.7336 134.802C50.0984 134.262 48.6075 133.357 47.3737 132.156C46.1399 130.955 45.1956 129.488 44.6123 127.868C43.7622 125.506 43.7189 122.929 44.4893 120.54C45.2597 118.152 46.8002 116.085 48.87 114.665L87.8964 87.8894L92.1989 109.941Z" fill="#FFB8B8"/>
<path d="M113.712 112.093C104.739 108.161 96.5809 112.432 86.283 115.858L84.6695 87.3516C94.8949 81.9012 104.644 80.4317 113.712 84.6624L113.712 112.093Z" fill="#6C63FF"/>
<path d="M124.444 73.5034C133.926 73.5034 141.613 65.8161 141.613 56.3333C141.613 46.8506 133.926 39.1633 124.444 39.1633C114.962 39.1633 107.276 46.8506 107.276 56.3333C107.276 65.8161 114.962 73.5034 124.444 73.5034Z" fill="#FFB8B8"/>
<path d="M144.984 54.1668C127.985 55.8318 115.032 53.0515 106.754 45.1352V38.76H143.541L144.984 54.1668Z" fill="#2F2E41"/>
</g>
<defs>
<clipPath id="clip0_80_858">
<rect width="572" height="398" fill="white"/>
</clipPath>
</defs>
</svg>
