<svg width="200" height="200" viewBox="0 0 200 200" fill="none" xmlns="http://www.w3.org/2000/svg">
<path d="M4.25 82H18.25" stroke="white" stroke-linecap="round"/>
<path d="M4.25 118H18.25" stroke="white" stroke-linecap="round"/>
<path d="M4.25 154H18.25" stroke="white" stroke-linecap="round"/>
<path d="M4.25 190H18.25" stroke="white" stroke-linecap="round"/>
<path d="M4.25 14L4.24999 190" stroke="white" stroke-linecap="round"/>
<path d="M30.484 25L24.452 6.8H27.962L33.344 23.258H31.602L37.192 6.8H40.312L45.746 23.258H44.056L49.568 6.8H52.792L46.76 25H43.172L38.206 10.154H39.142L34.098 25H30.484ZM63.4924 10.96C64.6018 10.96 65.5898 11.1767 66.4564 11.61C67.3404 12.0433 68.0338 12.7107 68.5364 13.612C69.0391 14.496 69.2904 15.64 69.2904 17.044V25H66.0404V17.46C66.0404 16.2293 65.7458 15.3107 65.1564 14.704C64.5844 14.0973 63.7784 13.794 62.7384 13.794C61.9758 13.794 61.2998 13.95 60.7104 14.262C60.1211 14.574 59.6618 15.042 59.3324 15.666C59.0204 16.2727 58.8644 17.044 58.8644 17.98V25H55.6144V5.708H58.8644V14.86L58.1624 13.716C58.6478 12.832 59.3498 12.156 60.2684 11.688C61.2044 11.2027 62.2791 10.96 63.4924 10.96ZM81.9673 25V22.192L81.7853 21.594V16.68C81.7853 15.7267 81.4993 14.99 80.9273 14.47C80.3553 13.9327 79.4886 13.664 78.3273 13.664C77.5473 13.664 76.7759 13.7853 76.0133 14.028C75.2679 14.2707 74.6353 14.6087 74.1153 15.042L72.8413 12.676C73.5866 12.104 74.4706 11.6793 75.4933 11.402C76.5333 11.1073 77.6079 10.96 78.7173 10.96C80.7279 10.96 82.2793 11.4453 83.3713 12.416C84.4806 13.3693 85.0353 14.8513 85.0353 16.862V25H81.9673ZM77.5993 25.182C76.5593 25.182 75.6493 25.0087 74.8693 24.662C74.0893 24.298 73.4826 23.804 73.0493 23.18C72.6333 22.5387 72.4253 21.8193 72.4253 21.022C72.4253 20.242 72.6073 19.54 72.9713 18.916C73.3526 18.292 73.9679 17.798 74.8173 17.434C75.6666 17.07 76.7933 16.888 78.1973 16.888H82.2273V19.046H78.4313C77.3219 19.046 76.5766 19.228 76.1953 19.592C75.8139 19.9387 75.6233 20.372 75.6233 20.892C75.6233 21.4813 75.8573 21.9493 76.3253 22.296C76.7933 22.6427 77.4433 22.816 78.2753 22.816C79.0726 22.816 79.7833 22.634 80.4073 22.27C81.0486 21.906 81.5079 21.3687 81.7853 20.658L82.3313 22.608C82.0193 23.4227 81.4559 24.0553 80.6413 24.506C79.8439 24.9567 78.8299 25.182 77.5993 25.182ZM94.4322 25.182C92.9069 25.182 91.7282 24.792 90.8962 24.012C90.0642 23.2147 89.6482 22.0447 89.6482 20.502V8.048H92.8982V20.424C92.8982 21.0827 93.0629 21.594 93.3922 21.958C93.7389 22.322 94.2156 22.504 94.8222 22.504C95.5502 22.504 96.1569 22.3133 96.6422 21.932L97.5522 24.246C97.1709 24.558 96.7029 24.792 96.1482 24.948C95.5936 25.104 95.0216 25.182 94.4322 25.182ZM87.3602 13.82V11.22H96.6162V13.82H87.3602ZM107.411 25V11.116H110.661V25H107.411ZM109.049 8.828C108.443 8.828 107.94 8.63733 107.541 8.256C107.16 7.87467 106.969 7.41533 106.969 6.878C106.969 6.32333 107.16 5.864 107.541 5.5C107.94 5.11867 108.443 4.928 109.049 4.928C109.656 4.928 110.15 5.11 110.531 5.474C110.93 5.82067 111.129 6.26267 111.129 6.8C111.129 7.372 110.939 7.85733 110.557 8.256C110.176 8.63733 109.673 8.828 109.049 8.828ZM119.217 25.182C118.056 25.182 116.938 25.0347 115.863 24.74C114.806 24.428 113.965 24.0553 113.341 23.622L114.589 21.152C115.213 21.5507 115.958 21.88 116.825 22.14C117.692 22.4 118.558 22.53 119.425 22.53C120.448 22.53 121.184 22.3913 121.635 22.114C122.103 21.8367 122.337 21.464 122.337 20.996C122.337 20.6147 122.181 20.3287 121.869 20.138C121.557 19.93 121.15 19.774 120.647 19.67C120.144 19.566 119.581 19.4707 118.957 19.384C118.35 19.2973 117.735 19.1847 117.111 19.046C116.504 18.89 115.95 18.6733 115.447 18.396C114.944 18.1013 114.537 17.7113 114.225 17.226C113.913 16.7407 113.757 16.0993 113.757 15.302C113.757 14.418 114.008 13.6553 114.511 13.014C115.014 12.3553 115.716 11.8527 116.617 11.506C117.536 11.142 118.619 10.96 119.867 10.96C120.803 10.96 121.748 11.064 122.701 11.272C123.654 11.48 124.443 11.7747 125.067 12.156L123.819 14.626C123.16 14.2273 122.493 13.9587 121.817 13.82C121.158 13.664 120.5 13.586 119.841 13.586C118.853 13.586 118.116 13.7333 117.631 14.028C117.163 14.3227 116.929 14.6953 116.929 15.146C116.929 15.562 117.085 15.874 117.397 16.082C117.709 16.29 118.116 16.4547 118.619 16.576C119.122 16.6973 119.676 16.8013 120.283 16.888C120.907 16.9573 121.522 17.07 122.129 17.226C122.736 17.382 123.29 17.5987 123.793 17.876C124.313 18.136 124.729 18.5087 125.041 18.994C125.353 19.4793 125.509 20.112 125.509 20.892C125.509 21.7587 125.249 22.5127 124.729 23.154C124.226 23.7953 123.507 24.298 122.571 24.662C121.635 25.0087 120.517 25.182 119.217 25.182ZM144.229 25.26C142.843 25.26 141.551 25.0347 140.355 24.584C139.177 24.116 138.145 23.466 137.261 22.634C136.395 21.7847 135.719 20.788 135.233 19.644C134.748 18.5 134.505 17.252 134.505 15.9C134.505 14.548 134.748 13.3 135.233 12.156C135.719 11.012 136.403 10.024 137.287 9.192C138.171 8.34267 139.203 7.69267 140.381 7.242C141.56 6.774 142.851 6.54 144.255 6.54C145.746 6.54 147.107 6.8 148.337 7.32C149.568 7.82267 150.608 8.57667 151.457 9.582L149.273 11.636C148.615 10.9253 147.878 10.3967 147.063 10.05C146.249 9.686 145.365 9.504 144.411 9.504C143.458 9.504 142.583 9.66 141.785 9.972C141.005 10.284 140.321 10.726 139.731 11.298C139.159 11.87 138.709 12.546 138.379 13.326C138.067 14.106 137.911 14.964 137.911 15.9C137.911 16.836 138.067 17.694 138.379 18.474C138.709 19.254 139.159 19.93 139.731 20.502C140.321 21.074 141.005 21.516 141.785 21.828C142.583 22.14 143.458 22.296 144.411 22.296C145.365 22.296 146.249 22.1227 147.063 21.776C147.878 21.412 148.615 20.866 149.273 20.138L151.457 22.218C150.608 23.206 149.568 23.96 148.337 24.48C147.107 25 145.737 25.26 144.229 25.26ZM158.185 25V9.66H152.153V6.8H167.597V9.66H161.565V25H158.185ZM173.227 15.172H182.301V18.032H173.227V15.172ZM173.513 25H170.133V6.8H183.419V9.634H173.513V25ZM189.965 18.968C189.965 18.3267 190.069 17.7633 190.277 17.278C190.485 16.7927 190.754 16.3593 191.083 15.978C191.413 15.5967 191.759 15.2413 192.123 14.912C192.505 14.5827 192.86 14.262 193.189 13.95C193.519 13.638 193.787 13.3087 193.995 12.962C194.203 12.6153 194.307 12.2253 194.307 11.792C194.307 11.064 194.013 10.4747 193.423 10.024C192.834 9.57333 192.045 9.348 191.057 9.348C190.104 9.348 189.272 9.52133 188.561 9.868C187.868 10.2147 187.287 10.7087 186.819 11.35L184.297 9.712C185.025 8.724 185.979 7.95267 187.157 7.398C188.336 6.826 189.731 6.54 191.343 6.54C192.609 6.54 193.718 6.73067 194.671 7.112C195.625 7.476 196.37 8.01333 196.907 8.724C197.445 9.41733 197.713 10.2667 197.713 11.272C197.713 11.9653 197.601 12.572 197.375 13.092C197.167 13.612 196.89 14.0713 196.543 14.47C196.214 14.8513 195.859 15.2153 195.477 15.562C195.096 15.8913 194.732 16.2207 194.385 16.55C194.056 16.8793 193.787 17.2347 193.579 17.616C193.371 17.9973 193.267 18.448 193.267 18.968H189.965ZM191.629 25.182C191.023 25.182 190.52 24.9827 190.121 24.584C189.74 24.1853 189.549 23.7087 189.549 23.154C189.549 22.5993 189.74 22.1313 190.121 21.75C190.52 21.3513 191.023 21.152 191.629 21.152C192.236 21.152 192.73 21.3513 193.111 21.75C193.493 22.1313 193.683 22.5993 193.683 23.154C193.683 23.7087 193.493 24.1853 193.111 24.584C192.73 24.9827 192.236 25.182 191.629 25.182Z" fill="white"/>
<path d="M29.162 88.096C28.33 88.096 27.53 87.9627 26.762 87.696C26.0047 87.4187 25.418 87.0667 25.002 86.64L25.466 85.728C25.8607 86.112 26.3887 86.4373 27.05 86.704C27.722 86.96 28.426 87.088 29.162 87.088C29.866 87.088 30.4367 87.0027 30.874 86.832C31.322 86.6507 31.6473 86.4107 31.85 86.112C32.0633 85.8133 32.17 85.4827 32.17 85.12C32.17 84.6827 32.042 84.3307 31.786 84.064C31.5407 83.7973 31.2153 83.5893 30.81 83.44C30.4047 83.28 29.9567 83.1413 29.466 83.024C28.9753 82.9067 28.4847 82.784 27.994 82.656C27.5033 82.5173 27.05 82.336 26.634 82.112C26.2287 81.888 25.898 81.5947 25.642 81.232C25.3967 80.8587 25.274 80.3733 25.274 79.776C25.274 79.2213 25.418 78.7147 25.706 78.256C26.0047 77.7867 26.458 77.4133 27.066 77.136C27.674 76.848 28.4527 76.704 29.402 76.704C30.0313 76.704 30.6553 76.7947 31.274 76.976C31.8927 77.1467 32.426 77.3867 32.874 77.696L32.474 78.64C31.994 78.32 31.482 78.0853 30.938 77.936C30.4047 77.7867 29.8873 77.712 29.386 77.712C28.714 77.712 28.1593 77.8027 27.722 77.984C27.2847 78.1653 26.9593 78.4107 26.746 78.72C26.5433 79.0187 26.442 79.36 26.442 79.744C26.442 80.1813 26.5647 80.5333 26.81 80.8C27.066 81.0667 27.3967 81.2747 27.802 81.424C28.218 81.5733 28.6713 81.7067 29.162 81.824C29.6527 81.9413 30.138 82.0693 30.618 82.208C31.1087 82.3467 31.5567 82.528 31.962 82.752C32.378 82.9653 32.7087 83.2533 32.954 83.616C33.21 83.9787 33.338 84.4533 33.338 85.04C33.338 85.584 33.1887 86.0907 32.89 86.56C32.5913 87.0187 32.1327 87.392 31.514 87.68C30.906 87.9573 30.122 88.096 29.162 88.096ZM39.1018 88.08C38.2911 88.08 37.5604 87.8987 36.9098 87.536C36.2698 87.1627 35.7631 86.656 35.3898 86.016C35.0164 85.3653 34.8298 84.624 34.8298 83.792C34.8298 82.9493 35.0164 82.208 35.3898 81.568C35.7631 80.928 36.2698 80.4267 36.9098 80.064C37.5498 79.7013 38.2804 79.52 39.1018 79.52C39.9338 79.52 40.6698 79.7013 41.3098 80.064C41.9604 80.4267 42.4671 80.928 42.8298 81.568C43.2031 82.208 43.3898 82.9493 43.3898 83.792C43.3898 84.624 43.2031 85.3653 42.8298 86.016C42.4671 86.656 41.9604 87.1627 41.3098 87.536C40.6591 87.8987 39.9231 88.08 39.1018 88.08ZM39.1018 87.072C39.7098 87.072 40.2484 86.9387 40.7178 86.672C41.1871 86.3947 41.5551 86.0107 41.8218 85.52C42.0991 85.0187 42.2378 84.4427 42.2378 83.792C42.2378 83.1307 42.0991 82.5547 41.8218 82.064C41.5551 81.5733 41.1871 81.1947 40.7178 80.928C40.2484 80.6507 39.7151 80.512 39.1178 80.512C38.5204 80.512 37.9871 80.6507 37.5178 80.928C37.0484 81.1947 36.6751 81.5733 36.3978 82.064C36.1204 82.5547 35.9818 83.1307 35.9818 83.792C35.9818 84.4427 36.1204 85.0187 36.3978 85.52C36.6751 86.0107 37.0484 86.3947 37.5178 86.672C37.9871 86.9387 38.5151 87.072 39.1018 87.072ZM45.709 88V76.128H46.845V88H45.709ZM52.1659 88L48.4379 79.6H49.6219L53.0459 87.392H52.4859L55.9579 79.6H57.0779L53.3339 88H52.1659ZM62.0114 88.08C61.1367 88.08 60.3687 87.8987 59.7074 87.536C59.046 87.1627 58.5287 86.656 58.1554 86.016C57.782 85.3653 57.5954 84.624 57.5954 83.792C57.5954 82.96 57.7714 82.224 58.1234 81.584C58.486 80.944 58.9767 80.4427 59.5954 80.08C60.2247 79.7067 60.9287 79.52 61.7074 79.52C62.4967 79.52 63.1954 79.7013 63.8034 80.064C64.422 80.416 64.9074 80.9173 65.2594 81.568C65.6114 82.208 65.7874 82.9493 65.7874 83.792C65.7874 83.8453 65.782 83.904 65.7714 83.968C65.7714 84.0213 65.7714 84.08 65.7714 84.144H58.4594V83.296H65.1634L64.7154 83.632C64.7154 83.024 64.582 82.4853 64.3154 82.016C64.0594 81.536 63.7074 81.1627 63.2594 80.896C62.8114 80.6293 62.294 80.496 61.7074 80.496C61.1314 80.496 60.614 80.6293 60.1554 80.896C59.6967 81.1627 59.3394 81.536 59.0834 82.016C58.8274 82.496 58.6994 83.0453 58.6994 83.664V83.84C58.6994 84.48 58.838 85.0453 59.1154 85.536C59.4034 86.016 59.798 86.3947 60.2994 86.672C60.8114 86.9387 61.3927 87.072 62.0434 87.072C62.5554 87.072 63.03 86.9813 63.4674 86.8C63.9154 86.6187 64.2994 86.3413 64.6194 85.968L65.2594 86.704C64.886 87.152 64.4167 87.4933 63.8514 87.728C63.2967 87.9627 62.6834 88.08 62.0114 88.08ZM74.9431 88.08C74.1538 88.08 73.5458 87.8667 73.1191 87.44C72.6925 87.0133 72.4791 86.4107 72.4791 85.632V77.744H73.6151V85.568C73.6151 86.0587 73.7378 86.4373 73.9831 86.704C74.2391 86.9707 74.6018 87.104 75.0711 87.104C75.5725 87.104 75.9885 86.96 76.3191 86.672L76.7191 87.488C76.4951 87.6907 76.2231 87.84 75.9031 87.936C75.5938 88.032 75.2738 88.08 74.9431 88.08ZM70.9751 80.544V79.6H76.1751V80.544H70.9751ZM83.0751 79.52C83.7578 79.52 84.3551 79.6533 84.8671 79.92C85.3898 80.176 85.7951 80.5707 86.0831 81.104C86.3818 81.6373 86.5311 82.3093 86.5311 83.12V88H85.3951V83.232C85.3951 82.3467 85.1711 81.68 84.7231 81.232C84.2858 80.7733 83.6671 80.544 82.8671 80.544C82.2698 80.544 81.7471 80.6667 81.2991 80.912C80.8618 81.1467 80.5205 81.4933 80.2751 81.952C80.0405 82.4 79.9231 82.944 79.9231 83.584V88H78.7871V76.128H79.9231V81.904L79.6991 81.472C79.9658 80.864 80.3925 80.3893 80.9791 80.048C81.5658 79.696 82.2645 79.52 83.0751 79.52ZM93.1676 88.08C92.293 88.08 91.525 87.8987 90.8636 87.536C90.2023 87.1627 89.685 86.656 89.3116 86.016C88.9383 85.3653 88.7516 84.624 88.7516 83.792C88.7516 82.96 88.9276 82.224 89.2796 81.584C89.6423 80.944 90.133 80.4427 90.7516 80.08C91.381 79.7067 92.085 79.52 92.8636 79.52C93.653 79.52 94.3516 79.7013 94.9596 80.064C95.5783 80.416 96.0636 80.9173 96.4156 81.568C96.7676 82.208 96.9436 82.9493 96.9436 83.792C96.9436 83.8453 96.9383 83.904 96.9276 83.968C96.9276 84.0213 96.9276 84.08 96.9276 84.144H89.6156V83.296H96.3196L95.8716 83.632C95.8716 83.024 95.7383 82.4853 95.4716 82.016C95.2156 81.536 94.8636 81.1627 94.4156 80.896C93.9676 80.6293 93.4503 80.496 92.8636 80.496C92.2876 80.496 91.7703 80.6293 91.3116 80.896C90.853 81.1627 90.4956 81.536 90.2396 82.016C89.9836 82.496 89.8556 83.0453 89.8556 83.664V83.84C89.8556 84.48 89.9943 85.0453 90.2716 85.536C90.5596 86.016 90.9543 86.3947 91.4556 86.672C91.9676 86.9387 92.549 87.072 93.1996 87.072C93.7116 87.072 94.1863 86.9813 94.6236 86.8C95.0716 86.6187 95.4556 86.3413 95.7756 85.968L96.4156 86.704C96.0423 87.152 95.573 87.4933 95.0076 87.728C94.453 87.9627 93.8396 88.08 93.1676 88.08ZM107.779 88.08C107.054 88.08 106.398 87.9147 105.811 87.584C105.225 87.2427 104.755 86.7573 104.403 86.128C104.062 85.488 103.891 84.7093 103.891 83.792C103.891 82.8747 104.062 82.1013 104.403 81.472C104.745 80.832 105.209 80.3467 105.795 80.016C106.382 79.6853 107.043 79.52 107.779 79.52C108.579 79.52 109.294 79.7013 109.923 80.064C110.563 80.416 111.065 80.9173 111.427 81.568C111.79 82.208 111.971 82.9493 111.971 83.792C111.971 84.6453 111.79 85.392 111.427 86.032C111.065 86.672 110.563 87.1733 109.923 87.536C109.294 87.8987 108.579 88.08 107.779 88.08ZM103.443 91.104V79.6H104.531V82.128L104.419 83.808L104.579 85.504V91.104H103.443ZM107.699 87.072C108.297 87.072 108.83 86.9387 109.299 86.672C109.769 86.3947 110.142 86.0107 110.419 85.52C110.697 85.0187 110.835 84.4427 110.835 83.792C110.835 83.1413 110.697 82.5707 110.419 82.08C110.142 81.5893 109.769 81.2053 109.299 80.928C108.83 80.6507 108.297 80.512 107.699 80.512C107.102 80.512 106.563 80.6507 106.083 80.928C105.614 81.2053 105.241 81.5893 104.963 82.08C104.697 82.5707 104.563 83.1413 104.563 83.792C104.563 84.4427 104.697 85.0187 104.963 85.52C105.241 86.0107 105.614 86.3947 106.083 86.672C106.563 86.9387 107.102 87.072 107.699 87.072ZM114.287 88V79.6H115.375V81.888L115.263 81.488C115.498 80.848 115.892 80.3627 116.447 80.032C117.002 79.6907 117.69 79.52 118.511 79.52V80.624C118.468 80.624 118.426 80.624 118.383 80.624C118.34 80.6133 118.298 80.608 118.255 80.608C117.37 80.608 116.676 80.88 116.175 81.424C115.674 81.9573 115.423 82.72 115.423 83.712V88H114.287ZM123.93 88.08C123.119 88.08 122.389 87.8987 121.738 87.536C121.098 87.1627 120.591 86.656 120.218 86.016C119.845 85.3653 119.658 84.624 119.658 83.792C119.658 82.9493 119.845 82.208 120.218 81.568C120.591 80.928 121.098 80.4267 121.738 80.064C122.378 79.7013 123.109 79.52 123.93 79.52C124.762 79.52 125.498 79.7013 126.138 80.064C126.789 80.4267 127.295 80.928 127.658 81.568C128.031 82.208 128.218 82.9493 128.218 83.792C128.218 84.624 128.031 85.3653 127.658 86.016C127.295 86.656 126.789 87.1627 126.138 87.536C125.487 87.8987 124.751 88.08 123.93 88.08ZM123.93 87.072C124.538 87.072 125.077 86.9387 125.546 86.672C126.015 86.3947 126.383 86.0107 126.65 85.52C126.927 85.0187 127.066 84.4427 127.066 83.792C127.066 83.1307 126.927 82.5547 126.65 82.064C126.383 81.5733 126.015 81.1947 125.546 80.928C125.077 80.6507 124.543 80.512 123.946 80.512C123.349 80.512 122.815 80.6507 122.346 80.928C121.877 81.1947 121.503 81.5733 121.226 82.064C120.949 82.5547 120.81 83.1307 120.81 83.792C120.81 84.4427 120.949 85.0187 121.226 85.52C121.503 86.0107 121.877 86.3947 122.346 86.672C122.815 86.9387 123.343 87.072 123.93 87.072ZM134.873 88.08C134.137 88.08 133.476 87.9147 132.889 87.584C132.302 87.2427 131.838 86.752 131.497 86.112C131.156 85.472 130.985 84.6987 130.985 83.792C130.985 82.8747 131.156 82.1013 131.497 81.472C131.849 80.832 132.318 80.3467 132.905 80.016C133.492 79.6853 134.148 79.52 134.873 79.52C135.673 79.52 136.388 79.7013 137.017 80.064C137.657 80.416 138.158 80.912 138.521 81.552C138.884 82.192 139.065 82.9387 139.065 83.792C139.065 84.6347 138.884 85.3813 138.521 86.032C138.158 86.672 137.657 87.1733 137.017 87.536C136.388 87.8987 135.673 88.08 134.873 88.08ZM130.537 88V76.128H131.673V82.08L131.513 83.776L131.625 85.472V88H130.537ZM134.793 87.072C135.39 87.072 135.924 86.9387 136.393 86.672C136.862 86.3947 137.236 86.0107 137.513 85.52C137.79 85.0187 137.929 84.4427 137.929 83.792C137.929 83.1307 137.79 82.5547 137.513 82.064C137.236 81.5733 136.862 81.1947 136.393 80.928C135.924 80.6507 135.39 80.512 134.793 80.512C134.196 80.512 133.657 80.6507 133.177 80.928C132.708 81.1947 132.334 81.5733 132.057 82.064C131.79 82.5547 131.657 83.1307 131.657 83.792C131.657 84.4427 131.79 85.0187 132.057 85.52C132.334 86.0107 132.708 86.3947 133.177 86.672C133.657 86.9387 134.196 87.072 134.793 87.072ZM141.381 88V76.128H142.517V88H141.381ZM149.246 88.08C148.371 88.08 147.603 87.8987 146.942 87.536C146.28 87.1627 145.763 86.656 145.39 86.016C145.016 85.3653 144.83 84.624 144.83 83.792C144.83 82.96 145.006 82.224 145.358 81.584C145.72 80.944 146.211 80.4427 146.83 80.08C147.459 79.7067 148.163 79.52 148.942 79.52C149.731 79.52 150.43 79.7013 151.038 80.064C151.656 80.416 152.142 80.9173 152.494 81.568C152.846 82.208 153.022 82.9493 153.022 83.792C153.022 83.8453 153.016 83.904 153.006 83.968C153.006 84.0213 153.006 84.08 153.006 84.144H145.694V83.296H152.398L151.95 83.632C151.95 83.024 151.816 82.4853 151.55 82.016C151.294 81.536 150.942 81.1627 150.494 80.896C150.046 80.6293 149.528 80.496 148.942 80.496C148.366 80.496 147.848 80.6293 147.39 80.896C146.931 81.1627 146.574 81.536 146.318 82.016C146.062 82.496 145.934 83.0453 145.934 83.664V83.84C145.934 84.48 146.072 85.0453 146.35 85.536C146.638 86.016 147.032 86.3947 147.534 86.672C148.046 86.9387 148.627 87.072 149.278 87.072C149.79 87.072 150.264 86.9813 150.702 86.8C151.15 86.6187 151.534 86.3413 151.854 85.968L152.494 86.704C152.12 87.152 151.651 87.4933 151.086 87.728C150.531 87.9627 149.918 88.08 149.246 88.08ZM165.83 79.52C166.513 79.52 167.105 79.6533 167.606 79.92C168.118 80.176 168.513 80.5707 168.79 81.104C169.078 81.6373 169.222 82.3093 169.222 83.12V88H168.086V83.232C168.086 82.3467 167.873 81.68 167.446 81.232C167.03 80.7733 166.438 80.544 165.67 80.544C165.094 80.544 164.593 80.6667 164.166 80.912C163.75 81.1467 163.425 81.4933 163.19 81.952C162.966 82.4 162.854 82.944 162.854 83.584V88H161.718V83.232C161.718 82.3467 161.505 81.68 161.078 81.232C160.651 80.7733 160.054 80.544 159.286 80.544C158.721 80.544 158.225 80.6667 157.798 80.912C157.371 81.1467 157.041 81.4933 156.806 81.952C156.582 82.4 156.47 82.944 156.47 83.584V88H155.334V79.6H156.422V81.872L156.246 81.472C156.502 80.864 156.913 80.3893 157.478 80.048C158.054 79.696 158.731 79.52 159.51 79.52C160.331 79.52 161.03 79.728 161.606 80.144C162.182 80.5493 162.555 81.1627 162.726 81.984L162.278 81.808C162.523 81.1253 162.955 80.576 163.574 80.16C164.203 79.7333 164.955 79.52 165.83 79.52ZM174.559 88.08C173.865 88.08 173.209 87.984 172.591 87.792C171.972 87.5893 171.487 87.3387 171.135 87.04L171.647 86.144C171.988 86.4 172.425 86.624 172.959 86.816C173.492 86.9973 174.052 87.088 174.639 87.088C175.439 87.088 176.015 86.9653 176.367 86.72C176.719 86.464 176.895 86.128 176.895 85.712C176.895 85.4027 176.793 85.1627 176.591 84.992C176.399 84.8107 176.143 84.6773 175.823 84.592C175.503 84.496 175.145 84.416 174.751 84.352C174.356 84.288 173.961 84.2133 173.567 84.128C173.183 84.0427 172.831 83.92 172.511 83.76C172.191 83.5893 171.929 83.36 171.727 83.072C171.535 82.784 171.439 82.4 171.439 81.92C171.439 81.4613 171.567 81.0507 171.823 80.688C172.079 80.3253 172.452 80.0427 172.943 79.84C173.444 79.6267 174.052 79.52 174.767 79.52C175.311 79.52 175.855 79.5947 176.399 79.744C176.943 79.8827 177.391 80.0693 177.743 80.304L177.247 81.216C176.873 80.96 176.473 80.7787 176.047 80.672C175.62 80.5547 175.193 80.496 174.767 80.496C174.009 80.496 173.449 80.6293 173.087 80.896C172.735 81.152 172.559 81.4827 172.559 81.888C172.559 82.208 172.655 82.4587 172.847 82.64C173.049 82.8213 173.311 82.9653 173.631 83.072C173.961 83.168 174.319 83.248 174.703 83.312C175.097 83.376 175.487 83.456 175.871 83.552C176.265 83.6373 176.623 83.76 176.943 83.92C177.273 84.0693 177.535 84.288 177.727 84.576C177.929 84.8533 178.031 85.2213 178.031 85.68C178.031 86.1707 177.892 86.5973 177.615 86.96C177.348 87.312 176.953 87.5893 176.431 87.792C175.919 87.984 175.295 88.08 174.559 88.08Z" fill="white"/>
<path d="M27.13 117.808H33.05V118.816H27.13V117.808ZM27.258 122.976H33.994V124H26.074V112.8H33.754V113.824H27.258V122.976ZM40.8251 115.52C41.5078 115.52 42.1051 115.653 42.6171 115.92C43.1398 116.176 43.5451 116.571 43.8331 117.104C44.1318 117.637 44.2811 118.309 44.2811 119.12V124H43.1451V119.232C43.1451 118.347 42.9211 117.68 42.4731 117.232C42.0358 116.773 41.4171 116.544 40.6171 116.544C40.0198 116.544 39.4971 116.667 39.0491 116.912C38.6118 117.147 38.2705 117.493 38.0251 117.952C37.7905 118.4 37.6731 118.944 37.6731 119.584V124H36.5371V115.6H37.6251V117.904L37.4491 117.472C37.7158 116.864 38.1425 116.389 38.7291 116.048C39.3158 115.696 40.0145 115.52 40.8251 115.52ZM50.0056 124.08C49.2163 124.08 48.6083 123.867 48.1816 123.44C47.755 123.013 47.5416 122.411 47.5416 121.632V113.744H48.6776V121.568C48.6776 122.059 48.8003 122.437 49.0456 122.704C49.3016 122.971 49.6643 123.104 50.1336 123.104C50.635 123.104 51.051 122.96 51.3816 122.672L51.7816 123.488C51.5576 123.691 51.2856 123.84 50.9656 123.936C50.6563 124.032 50.3363 124.08 50.0056 124.08ZM46.0376 116.544V115.6H51.2376V116.544H46.0376ZM57.1208 124.08C56.2461 124.08 55.4781 123.899 54.8168 123.536C54.1554 123.163 53.6381 122.656 53.2648 122.016C52.8914 121.365 52.7048 120.624 52.7048 119.792C52.7048 118.96 52.8808 118.224 53.2328 117.584C53.5954 116.944 54.0861 116.443 54.7048 116.08C55.3341 115.707 56.0381 115.52 56.8168 115.52C57.6061 115.52 58.3048 115.701 58.9128 116.064C59.5314 116.416 60.0168 116.917 60.3688 117.568C60.7208 118.208 60.8968 118.949 60.8968 119.792C60.8968 119.845 60.8914 119.904 60.8808 119.968C60.8808 120.021 60.8808 120.08 60.8808 120.144H53.5688V119.296H60.2728L59.8248 119.632C59.8248 119.024 59.6914 118.485 59.4248 118.016C59.1688 117.536 58.8168 117.163 58.3688 116.896C57.9208 116.629 57.4034 116.496 56.8168 116.496C56.2408 116.496 55.7234 116.629 55.2648 116.896C54.8061 117.163 54.4488 117.536 54.1928 118.016C53.9368 118.496 53.8088 119.045 53.8088 119.664V119.84C53.8088 120.48 53.9474 121.045 54.2248 121.536C54.5128 122.016 54.9074 122.395 55.4088 122.672C55.9208 122.939 56.5021 123.072 57.1528 123.072C57.6648 123.072 58.1394 122.981 58.5768 122.8C59.0248 122.619 59.4088 122.341 59.7288 121.968L60.3688 122.704C59.9954 123.152 59.5261 123.493 58.9608 123.728C58.4061 123.963 57.7928 124.08 57.1208 124.08ZM63.209 124V115.6H64.297V117.888L64.185 117.488C64.4197 116.848 64.8143 116.363 65.369 116.032C65.9237 115.691 66.6117 115.52 67.433 115.52V116.624C67.3903 116.624 67.3477 116.624 67.305 116.624C67.2623 116.613 67.2197 116.608 67.177 116.608C66.2917 116.608 65.5983 116.88 65.097 117.424C64.5957 117.957 64.345 118.72 64.345 119.712V124H63.209ZM76.4744 124.08C75.685 124.08 75.077 123.867 74.6504 123.44C74.2237 123.013 74.0104 122.411 74.0104 121.632V113.744H75.1464V121.568C75.1464 122.059 75.269 122.437 75.5144 122.704C75.7704 122.971 76.133 123.104 76.6024 123.104C77.1037 123.104 77.5197 122.96 77.8504 122.672L78.2504 123.488C78.0264 123.691 77.7544 123.84 77.4344 123.936C77.125 124.032 76.805 124.08 76.4744 124.08ZM72.5064 116.544V115.6H77.7064V116.544H72.5064ZM84.6064 115.52C85.289 115.52 85.8864 115.653 86.3984 115.92C86.921 116.176 87.3264 116.571 87.6144 117.104C87.913 117.637 88.0624 118.309 88.0624 119.12V124H86.9264V119.232C86.9264 118.347 86.7024 117.68 86.2544 117.232C85.817 116.773 85.1984 116.544 84.3984 116.544C83.801 116.544 83.2784 116.667 82.8304 116.912C82.393 117.147 82.0517 117.493 81.8064 117.952C81.5717 118.4 81.4544 118.944 81.4544 119.584V124H80.3184V112.128H81.4544V117.904L81.2304 117.472C81.497 116.864 81.9237 116.389 82.5104 116.048C83.097 115.696 83.7957 115.52 84.6064 115.52ZM94.6989 124.08C93.8242 124.08 93.0562 123.899 92.3949 123.536C91.7335 123.163 91.2162 122.656 90.8429 122.016C90.4695 121.365 90.2829 120.624 90.2829 119.792C90.2829 118.96 90.4589 118.224 90.8109 117.584C91.1735 116.944 91.6642 116.443 92.2829 116.08C92.9122 115.707 93.6162 115.52 94.3949 115.52C95.1842 115.52 95.8829 115.701 96.4909 116.064C97.1095 116.416 97.5949 116.917 97.9469 117.568C98.2989 118.208 98.4749 118.949 98.4749 119.792C98.4749 119.845 98.4695 119.904 98.4589 119.968C98.4589 120.021 98.4589 120.08 98.4589 120.144H91.1469V119.296H97.8509L97.4029 119.632C97.4029 119.024 97.2695 118.485 97.0029 118.016C96.7469 117.536 96.3949 117.163 95.9469 116.896C95.4989 116.629 94.9815 116.496 94.3949 116.496C93.8189 116.496 93.3015 116.629 92.8429 116.896C92.3842 117.163 92.0269 117.536 91.7709 118.016C91.5149 118.496 91.3869 119.045 91.3869 119.664V119.84C91.3869 120.48 91.5255 121.045 91.8029 121.536C92.0909 122.016 92.4855 122.395 92.9869 122.672C93.4989 122.939 94.0802 123.072 94.7309 123.072C95.2429 123.072 95.7175 122.981 96.1549 122.8C96.6029 122.619 96.9869 122.341 97.3069 121.968L97.9469 122.704C97.5735 123.152 97.1042 123.493 96.5389 123.728C95.9842 123.963 95.3709 124.08 94.6989 124.08ZM108.463 124.08C107.631 124.08 106.884 123.899 106.223 123.536C105.572 123.163 105.06 122.656 104.687 122.016C104.313 121.365 104.127 120.624 104.127 119.792C104.127 118.949 104.313 118.208 104.687 117.568C105.06 116.928 105.572 116.427 106.223 116.064C106.884 115.701 107.631 115.52 108.463 115.52C109.177 115.52 109.823 115.659 110.399 115.936C110.975 116.213 111.428 116.629 111.759 117.184L110.911 117.76C110.623 117.333 110.265 117.019 109.839 116.816C109.412 116.613 108.948 116.512 108.447 116.512C107.849 116.512 107.311 116.651 106.831 116.928C106.351 117.195 105.972 117.573 105.695 118.064C105.417 118.555 105.279 119.131 105.279 119.792C105.279 120.453 105.417 121.029 105.695 121.52C105.972 122.011 106.351 122.395 106.831 122.672C107.311 122.939 107.849 123.072 108.447 123.072C108.948 123.072 109.412 122.971 109.839 122.768C110.265 122.565 110.623 122.256 110.911 121.84L111.759 122.416C111.428 122.96 110.975 123.376 110.399 123.664C109.823 123.941 109.177 124.08 108.463 124.08ZM117.274 124.08C116.463 124.08 115.732 123.899 115.082 123.536C114.442 123.163 113.935 122.656 113.562 122.016C113.188 121.365 113.002 120.624 113.002 119.792C113.002 118.949 113.188 118.208 113.562 117.568C113.935 116.928 114.442 116.427 115.082 116.064C115.722 115.701 116.452 115.52 117.274 115.52C118.106 115.52 118.842 115.701 119.482 116.064C120.132 116.427 120.639 116.928 121.002 117.568C121.375 118.208 121.562 118.949 121.562 119.792C121.562 120.624 121.375 121.365 121.002 122.016C120.639 122.656 120.132 123.163 119.482 123.536C118.831 123.899 118.095 124.08 117.274 124.08ZM117.274 123.072C117.882 123.072 118.42 122.939 118.89 122.672C119.359 122.395 119.727 122.011 119.994 121.52C120.271 121.019 120.41 120.443 120.41 119.792C120.41 119.131 120.271 118.555 119.994 118.064C119.727 117.573 119.359 117.195 118.89 116.928C118.42 116.651 117.887 116.512 117.29 116.512C116.692 116.512 116.159 116.651 115.69 116.928C115.22 117.195 114.847 117.573 114.57 118.064C114.292 118.555 114.154 119.131 114.154 119.792C114.154 120.443 114.292 121.019 114.57 121.52C114.847 122.011 115.22 122.395 115.69 122.672C116.159 122.939 116.687 123.072 117.274 123.072ZM123.881 124V115.6H124.969V117.888L124.857 117.488C125.092 116.848 125.486 116.363 126.041 116.032C126.596 115.691 127.284 115.52 128.105 115.52V116.624C128.062 116.624 128.02 116.624 127.977 116.624C127.934 116.613 127.892 116.608 127.849 116.608C126.964 116.608 126.27 116.88 125.769 117.424C125.268 117.957 125.017 118.72 125.017 119.712V124H123.881ZM130.178 124V115.6H131.266V117.888L131.154 117.488C131.388 116.848 131.783 116.363 132.338 116.032C132.892 115.691 133.58 115.52 134.402 115.52V116.624C134.359 116.624 134.316 116.624 134.274 116.624C134.231 116.613 134.188 116.608 134.146 116.608C133.26 116.608 132.567 116.88 132.066 117.424C131.564 117.957 131.314 118.72 131.314 119.712V124H130.178ZM139.965 124.08C139.09 124.08 138.322 123.899 137.661 123.536C136.999 123.163 136.482 122.656 136.109 122.016C135.735 121.365 135.549 120.624 135.549 119.792C135.549 118.96 135.725 118.224 136.077 117.584C136.439 116.944 136.93 116.443 137.549 116.08C138.178 115.707 138.882 115.52 139.661 115.52C140.45 115.52 141.149 115.701 141.757 116.064C142.375 116.416 142.861 116.917 143.213 117.568C143.565 118.208 143.741 118.949 143.741 119.792C143.741 119.845 143.735 119.904 143.725 119.968C143.725 120.021 143.725 120.08 143.725 120.144H136.413V119.296H143.117L142.669 119.632C142.669 119.024 142.535 118.485 142.269 118.016C142.013 117.536 141.661 117.163 141.213 116.896C140.765 116.629 140.247 116.496 139.661 116.496C139.085 116.496 138.567 116.629 138.109 116.896C137.65 117.163 137.293 117.536 137.037 118.016C136.781 118.496 136.653 119.045 136.653 119.664V119.84C136.653 120.48 136.791 121.045 137.069 121.536C137.357 122.016 137.751 122.395 138.253 122.672C138.765 122.939 139.346 123.072 139.997 123.072C140.509 123.072 140.983 122.981 141.421 122.8C141.869 122.619 142.253 122.341 142.573 121.968L143.213 122.704C142.839 123.152 142.37 123.493 141.805 123.728C141.25 123.963 140.637 124.08 139.965 124.08ZM149.541 124.08C148.709 124.08 147.962 123.899 147.301 123.536C146.65 123.163 146.138 122.656 145.765 122.016C145.391 121.365 145.205 120.624 145.205 119.792C145.205 118.949 145.391 118.208 145.765 117.568C146.138 116.928 146.65 116.427 147.301 116.064C147.962 115.701 148.709 115.52 149.541 115.52C150.255 115.52 150.901 115.659 151.477 115.936C152.053 116.213 152.506 116.629 152.837 117.184L151.989 117.76C151.701 117.333 151.343 117.019 150.917 116.816C150.49 116.613 150.026 116.512 149.525 116.512C148.927 116.512 148.389 116.651 147.909 116.928C147.429 117.195 147.05 117.573 146.773 118.064C146.495 118.555 146.357 119.131 146.357 119.792C146.357 120.453 146.495 121.029 146.773 121.52C147.05 122.011 147.429 122.395 147.909 122.672C148.389 122.939 148.927 123.072 149.525 123.072C150.026 123.072 150.49 122.971 150.917 122.768C151.343 122.565 151.701 122.256 151.989 121.84L152.837 122.416C152.506 122.96 152.053 123.376 151.477 123.664C150.901 123.941 150.255 124.08 149.541 124.08ZM157.818 124.08C157.029 124.08 156.421 123.867 155.994 123.44C155.567 123.013 155.354 122.411 155.354 121.632V113.744H156.49V121.568C156.49 122.059 156.613 122.437 156.858 122.704C157.114 122.971 157.477 123.104 157.946 123.104C158.447 123.104 158.863 122.96 159.194 122.672L159.594 123.488C159.37 123.691 159.098 123.84 158.778 123.936C158.469 124.032 158.149 124.08 157.818 124.08ZM153.85 116.544V115.6H159.05V116.544H153.85ZM166.746 121.824L166.778 120.368L172.01 115.6H173.402L169.706 119.136L169.066 119.68L166.746 121.824ZM165.85 124V112.128H166.986V124H165.85ZM172.362 124L168.858 119.632L169.594 118.752L173.754 124H172.362ZM178.699 124.08C177.824 124.08 177.056 123.899 176.395 123.536C175.734 123.163 175.216 122.656 174.843 122.016C174.47 121.365 174.283 120.624 174.283 119.792C174.283 118.96 174.459 118.224 174.811 117.584C175.174 116.944 175.664 116.443 176.283 116.08C176.912 115.707 177.616 115.52 178.395 115.52C179.184 115.52 179.883 115.701 180.491 116.064C181.11 116.416 181.595 116.917 181.947 117.568C182.299 118.208 182.475 118.949 182.475 119.792C182.475 119.845 182.47 119.904 182.459 119.968C182.459 120.021 182.459 120.08 182.459 120.144H175.147V119.296H181.851L181.403 119.632C181.403 119.024 181.27 118.485 181.003 118.016C180.747 117.536 180.395 117.163 179.947 116.896C179.499 116.629 178.982 116.496 178.395 116.496C177.819 116.496 177.302 116.629 176.843 116.896C176.384 117.163 176.027 117.536 175.771 118.016C175.515 118.496 175.387 119.045 175.387 119.664V119.84C175.387 120.48 175.526 121.045 175.803 121.536C176.091 122.016 176.486 122.395 176.987 122.672C177.499 122.939 178.08 123.072 178.731 123.072C179.243 123.072 179.718 122.981 180.155 122.8C180.603 122.619 180.987 122.341 181.307 121.968L181.947 122.704C181.574 123.152 181.104 123.493 180.539 123.728C179.984 123.963 179.371 124.08 178.699 124.08ZM184.695 127.184C184.3 127.184 183.922 127.12 183.559 126.992C183.207 126.864 182.903 126.672 182.647 126.416L183.175 125.568C183.388 125.771 183.618 125.925 183.863 126.032C184.119 126.149 184.402 126.208 184.711 126.208C185.084 126.208 185.404 126.101 185.671 125.888C185.948 125.685 186.21 125.323 186.455 124.8L186.999 123.568L187.127 123.392L190.583 115.6H191.703L187.495 125.008C187.26 125.552 186.999 125.984 186.711 126.304C186.434 126.624 186.13 126.848 185.799 126.976C185.468 127.115 185.1 127.184 184.695 127.184ZM186.935 124.24L183.063 115.6H184.247L187.671 123.312L186.935 124.24Z" fill="white"/>
<path d="M27.13 153.808H33.05V154.816H27.13V153.808ZM27.258 158.976H33.994V160H26.074V148.8H33.754V149.824H27.258V158.976ZM41.6761 160V158.144L41.6281 157.84V154.736C41.6281 154.021 41.4255 153.472 41.0201 153.088C40.6255 152.704 40.0335 152.512 39.2441 152.512C38.7001 152.512 38.1828 152.603 37.6921 152.784C37.2015 152.965 36.7855 153.205 36.4441 153.504L35.9321 152.656C36.3588 152.293 36.8708 152.016 37.4681 151.824C38.0655 151.621 38.6948 151.52 39.3561 151.52C40.4441 151.52 41.2815 151.792 41.8681 152.336C42.4655 152.869 42.7641 153.685 42.7641 154.784V160H41.6761ZM38.7801 160.08C38.1508 160.08 37.6015 159.979 37.1321 159.776C36.6735 159.563 36.3215 159.275 36.0761 158.912C35.8308 158.539 35.7081 158.112 35.7081 157.632C35.7081 157.195 35.8095 156.8 36.0121 156.448C36.2255 156.085 36.5668 155.797 37.0361 155.584C37.5161 155.36 38.1561 155.248 38.9561 155.248H41.8521V156.096H38.9881C38.1775 156.096 37.6121 156.24 37.2921 156.528C36.9828 156.816 36.8281 157.173 36.8281 157.6C36.8281 158.08 37.0148 158.464 37.3881 158.752C37.7615 159.04 38.2841 159.184 38.9561 159.184C39.5961 159.184 40.1455 159.04 40.6041 158.752C41.0735 158.453 41.4148 158.027 41.6281 157.472L41.8841 158.256C41.6708 158.811 41.2975 159.253 40.7641 159.584C40.2415 159.915 39.5801 160.08 38.7801 160.08ZM45.8496 160V151.6H46.9376V153.888L46.8256 153.488C47.0603 152.848 47.455 152.363 48.0096 152.032C48.5643 151.691 49.2523 151.52 50.0736 151.52V152.624C50.031 152.624 49.9883 152.624 49.9456 152.624C49.903 152.613 49.8603 152.608 49.8176 152.608C48.9323 152.608 48.239 152.88 47.7376 153.424C47.2363 153.957 46.9856 154.72 46.9856 155.712V160H45.8496ZM56.4345 151.52C57.1172 151.52 57.7145 151.653 58.2265 151.92C58.7492 152.176 59.1545 152.571 59.4425 153.104C59.7412 153.637 59.8905 154.309 59.8905 155.12V160H58.7545V155.232C58.7545 154.347 58.5305 153.68 58.0825 153.232C57.6452 152.773 57.0265 152.544 56.2265 152.544C55.6292 152.544 55.1065 152.667 54.6585 152.912C54.2212 153.147 53.8798 153.493 53.6345 153.952C53.3998 154.4 53.2825 154.944 53.2825 155.584V160H52.1465V151.6H53.2345V153.904L53.0585 153.472C53.3252 152.864 53.7518 152.389 54.3385 152.048C54.9252 151.696 55.6238 151.52 56.4345 151.52ZM71.4825 160.08C70.7572 160.08 70.1012 159.915 69.5145 159.584C68.9278 159.243 68.4585 158.757 68.1065 158.128C67.7652 157.488 67.5945 156.709 67.5945 155.792C67.5945 154.875 67.7652 154.101 68.1065 153.472C68.4478 152.832 68.9118 152.347 69.4985 152.016C70.0852 151.685 70.7465 151.52 71.4825 151.52C72.2825 151.52 72.9972 151.701 73.6265 152.064C74.2665 152.416 74.7678 152.917 75.1305 153.568C75.4932 154.208 75.6745 154.949 75.6745 155.792C75.6745 156.645 75.4932 157.392 75.1305 158.032C74.7678 158.672 74.2665 159.173 73.6265 159.536C72.9972 159.899 72.2825 160.08 71.4825 160.08ZM67.1465 163.104V151.6H68.2345V154.128L68.1225 155.808L68.2825 157.504V163.104H67.1465ZM71.4025 159.072C71.9998 159.072 72.5332 158.939 73.0025 158.672C73.4718 158.395 73.8452 158.011 74.1225 157.52C74.3998 157.019 74.5385 156.443 74.5385 155.792C74.5385 155.141 74.3998 154.571 74.1225 154.08C73.8452 153.589 73.4718 153.205 73.0025 152.928C72.5332 152.651 71.9998 152.512 71.4025 152.512C70.8052 152.512 70.2665 152.651 69.7865 152.928C69.3172 153.205 68.9438 153.589 68.6665 154.08C68.3998 154.571 68.2665 155.141 68.2665 155.792C68.2665 156.443 68.3998 157.019 68.6665 157.52C68.9438 158.011 69.3172 158.395 69.7865 158.672C70.2665 158.939 70.8052 159.072 71.4025 159.072ZM81.4143 160.08C80.6036 160.08 79.8729 159.899 79.2223 159.536C78.5823 159.163 78.0756 158.656 77.7023 158.016C77.3289 157.365 77.1423 156.624 77.1423 155.792C77.1423 154.949 77.3289 154.208 77.7023 153.568C78.0756 152.928 78.5823 152.427 79.2223 152.064C79.8623 151.701 80.5929 151.52 81.4143 151.52C82.2463 151.52 82.9823 151.701 83.6223 152.064C84.2729 152.427 84.7796 152.928 85.1423 153.568C85.5156 154.208 85.7023 154.949 85.7023 155.792C85.7023 156.624 85.5156 157.365 85.1423 158.016C84.7796 158.656 84.2729 159.163 83.6223 159.536C82.9716 159.899 82.2356 160.08 81.4143 160.08ZM81.4143 159.072C82.0223 159.072 82.5609 158.939 83.0303 158.672C83.4996 158.395 83.8676 158.011 84.1343 157.52C84.4116 157.019 84.5503 156.443 84.5503 155.792C84.5503 155.131 84.4116 154.555 84.1343 154.064C83.8676 153.573 83.4996 153.195 83.0303 152.928C82.5609 152.651 82.0276 152.512 81.4303 152.512C80.8329 152.512 80.2996 152.651 79.8303 152.928C79.3609 153.195 78.9876 153.573 78.7103 154.064C78.4329 154.555 78.2943 155.131 78.2943 155.792C78.2943 156.443 78.4329 157.019 78.7103 157.52C78.9876 158.011 79.3609 158.395 79.8303 158.672C80.2996 158.939 80.8276 159.072 81.4143 159.072ZM88.0215 160V151.6H89.1575V160H88.0215ZM88.5975 149.744C88.3628 149.744 88.1655 149.664 88.0055 149.504C87.8455 149.344 87.7655 149.152 87.7655 148.928C87.7655 148.704 87.8455 148.517 88.0055 148.368C88.1655 148.208 88.3628 148.128 88.5975 148.128C88.8322 148.128 89.0295 148.203 89.1895 148.352C89.3495 148.501 89.4295 148.688 89.4295 148.912C89.4295 149.147 89.3495 149.344 89.1895 149.504C89.0402 149.664 88.8428 149.744 88.5975 149.744ZM96.6064 151.52C97.289 151.52 97.8864 151.653 98.3984 151.92C98.921 152.176 99.3264 152.571 99.6144 153.104C99.913 153.637 100.062 154.309 100.062 155.12V160H98.9264V155.232C98.9264 154.347 98.7024 153.68 98.2544 153.232C97.817 152.773 97.1984 152.544 96.3984 152.544C95.801 152.544 95.2784 152.667 94.8304 152.912C94.393 153.147 94.0517 153.493 93.8064 153.952C93.5717 154.4 93.4544 154.944 93.4544 155.584V160H92.3184V151.6H93.4064V153.904L93.2304 153.472C93.497 152.864 93.9237 152.389 94.5104 152.048C95.097 151.696 95.7957 151.52 96.6064 151.52ZM105.787 160.08C104.998 160.08 104.39 159.867 103.963 159.44C103.536 159.013 103.323 158.411 103.323 157.632V149.744H104.459V157.568C104.459 158.059 104.582 158.437 104.827 158.704C105.083 158.971 105.446 159.104 105.915 159.104C106.416 159.104 106.832 158.96 107.163 158.672L107.563 159.488C107.339 159.691 107.067 159.84 106.747 159.936C106.438 160.032 106.118 160.08 105.787 160.08ZM101.819 152.544V151.6H107.019V152.544H101.819ZM111.887 160.08C111.194 160.08 110.538 159.984 109.919 159.792C109.3 159.589 108.815 159.339 108.463 159.04L108.975 158.144C109.316 158.4 109.754 158.624 110.287 158.816C110.82 158.997 111.38 159.088 111.967 159.088C112.767 159.088 113.343 158.965 113.695 158.72C114.047 158.464 114.223 158.128 114.223 157.712C114.223 157.403 114.122 157.163 113.919 156.992C113.727 156.811 113.471 156.677 113.151 156.592C112.831 156.496 112.474 156.416 112.079 156.352C111.684 156.288 111.29 156.213 110.895 156.128C110.511 156.043 110.159 155.92 109.839 155.76C109.519 155.589 109.258 155.36 109.055 155.072C108.863 154.784 108.767 154.4 108.767 153.92C108.767 153.461 108.895 153.051 109.151 152.688C109.407 152.325 109.78 152.043 110.271 151.84C110.772 151.627 111.38 151.52 112.095 151.52C112.639 151.52 113.183 151.595 113.727 151.744C114.271 151.883 114.719 152.069 115.071 152.304L114.575 153.216C114.202 152.96 113.802 152.779 113.375 152.672C112.948 152.555 112.522 152.496 112.095 152.496C111.338 152.496 110.778 152.629 110.415 152.896C110.063 153.152 109.887 153.483 109.887 153.888C109.887 154.208 109.983 154.459 110.175 154.64C110.378 154.821 110.639 154.965 110.959 155.072C111.29 155.168 111.647 155.248 112.031 155.312C112.426 155.376 112.815 155.456 113.199 155.552C113.594 155.637 113.951 155.76 114.271 155.92C114.602 156.069 114.863 156.288 115.055 156.576C115.258 156.853 115.359 157.221 115.359 157.68C115.359 158.171 115.22 158.597 114.943 158.96C114.676 159.312 114.282 159.589 113.759 159.792C113.247 159.984 112.623 160.08 111.887 160.08Z" fill="white"/>
<path d="M28.618 196L24.842 184.8H26.058L29.594 195.344H28.986L32.634 184.8H33.722L37.322 195.344H36.746L40.314 184.8H41.45L37.674 196H36.426L32.986 186H33.306L29.85 196H28.618ZM43.334 196V187.6H44.47V196H43.334ZM43.91 185.744C43.6753 185.744 43.478 185.664 43.318 185.504C43.158 185.344 43.078 185.152 43.078 184.928C43.078 184.704 43.158 184.517 43.318 184.368C43.478 184.208 43.6753 184.128 43.91 184.128C44.1447 184.128 44.342 184.203 44.502 184.352C44.662 184.501 44.742 184.688 44.742 184.912C44.742 185.147 44.662 185.344 44.502 185.504C44.3527 185.664 44.1553 185.744 43.91 185.744ZM51.9189 187.52C52.6015 187.52 53.1989 187.653 53.7109 187.92C54.2335 188.176 54.6389 188.571 54.9269 189.104C55.2255 189.637 55.3749 190.309 55.3749 191.12V196H54.2389V191.232C54.2389 190.347 54.0149 189.68 53.5669 189.232C53.1295 188.773 52.5109 188.544 51.7109 188.544C51.1135 188.544 50.5909 188.667 50.1429 188.912C49.7055 189.147 49.3642 189.493 49.1189 189.952C48.8842 190.4 48.7669 190.944 48.7669 191.584V196H47.6309V187.6H48.7189V189.904L48.5429 189.472C48.8095 188.864 49.2362 188.389 49.8229 188.048C50.4095 187.696 51.1082 187.52 51.9189 187.52ZM66.9669 196.08C66.2415 196.08 65.5855 195.915 64.9989 195.584C64.4122 195.243 63.9429 194.757 63.5909 194.128C63.2495 193.488 63.0789 192.709 63.0789 191.792C63.0789 190.875 63.2495 190.101 63.5909 189.472C63.9322 188.832 64.3962 188.347 64.9829 188.016C65.5695 187.685 66.2309 187.52 66.9669 187.52C67.7669 187.52 68.4815 187.701 69.1109 188.064C69.7509 188.416 70.2522 188.917 70.6149 189.568C70.9775 190.208 71.1589 190.949 71.1589 191.792C71.1589 192.645 70.9775 193.392 70.6149 194.032C70.2522 194.672 69.7509 195.173 69.1109 195.536C68.4815 195.899 67.7669 196.08 66.9669 196.08ZM62.6309 199.104V187.6H63.7189V190.128L63.6069 191.808L63.7669 193.504V199.104H62.6309ZM66.8869 195.072C67.4842 195.072 68.0175 194.939 68.4869 194.672C68.9562 194.395 69.3295 194.011 69.6069 193.52C69.8842 193.019 70.0229 192.443 70.0229 191.792C70.0229 191.141 69.8842 190.571 69.6069 190.08C69.3295 189.589 68.9562 189.205 68.4869 188.928C68.0175 188.651 67.4842 188.512 66.8869 188.512C66.2895 188.512 65.7509 188.651 65.2709 188.928C64.8015 189.205 64.4282 189.589 64.1509 190.08C63.8842 190.571 63.7509 191.141 63.7509 191.792C63.7509 192.443 63.8842 193.019 64.1509 193.52C64.4282 194.011 64.8015 194.395 65.2709 194.672C65.7509 194.939 66.2895 195.072 66.8869 195.072ZM73.4746 196V187.6H74.5626V189.888L74.4506 189.488C74.6853 188.848 75.08 188.363 75.6346 188.032C76.1893 187.691 76.8773 187.52 77.6986 187.52V188.624C77.656 188.624 77.6133 188.624 77.5706 188.624C77.528 188.613 77.4853 188.608 77.4426 188.608C76.5573 188.608 75.864 188.88 75.3626 189.424C74.8613 189.957 74.6106 190.72 74.6106 191.712V196H73.4746ZM79.7715 196V187.6H80.9075V196H79.7715ZM80.3475 185.744C80.1128 185.744 79.9155 185.664 79.7555 185.504C79.5955 185.344 79.5155 185.152 79.5155 184.928C79.5155 184.704 79.5955 184.517 79.7555 184.368C79.9155 184.208 80.1128 184.128 80.3475 184.128C80.5822 184.128 80.7795 184.203 80.9395 184.352C81.0995 184.501 81.1795 184.688 81.1795 184.912C81.1795 185.147 81.0995 185.344 80.9395 185.504C80.7902 185.664 80.5928 185.744 80.3475 185.744ZM83.1564 196V195.248L88.7564 188.16L88.9964 188.544H83.2524V187.6H89.8924V188.336L84.3084 195.44L84.0204 195.056H90.0044V196H83.1564ZM95.6676 196.08C94.793 196.08 94.025 195.899 93.3636 195.536C92.7023 195.163 92.185 194.656 91.8116 194.016C91.4383 193.365 91.2516 192.624 91.2516 191.792C91.2516 190.96 91.4276 190.224 91.7796 189.584C92.1423 188.944 92.633 188.443 93.2516 188.08C93.881 187.707 94.585 187.52 95.3636 187.52C96.153 187.52 96.8516 187.701 97.4596 188.064C98.0783 188.416 98.5636 188.917 98.9156 189.568C99.2676 190.208 99.4436 190.949 99.4436 191.792C99.4436 191.845 99.4383 191.904 99.4276 191.968C99.4276 192.021 99.4276 192.08 99.4276 192.144H92.1156V191.296H98.8196L98.3716 191.632C98.3716 191.024 98.2383 190.485 97.9716 190.016C97.7156 189.536 97.3636 189.163 96.9156 188.896C96.4676 188.629 95.9503 188.496 95.3636 188.496C94.7876 188.496 94.2703 188.629 93.8116 188.896C93.353 189.163 92.9956 189.536 92.7396 190.016C92.4836 190.496 92.3556 191.045 92.3556 191.664V191.84C92.3556 192.48 92.4943 193.045 92.7716 193.536C93.0596 194.016 93.4543 194.395 93.9556 194.672C94.4676 194.939 95.049 195.072 95.6996 195.072C96.2116 195.072 96.6863 194.981 97.1236 194.8C97.5716 194.619 97.9556 194.341 98.2756 193.968L98.9156 194.704C98.5423 195.152 98.073 195.493 97.5076 195.728C96.953 195.963 96.3396 196.08 95.6676 196.08ZM104.012 196.08C103.319 196.08 102.663 195.984 102.044 195.792C101.425 195.589 100.94 195.339 100.588 195.04L101.1 194.144C101.441 194.4 101.879 194.624 102.412 194.816C102.945 194.997 103.505 195.088 104.092 195.088C104.892 195.088 105.468 194.965 105.82 194.72C106.172 194.464 106.348 194.128 106.348 193.712C106.348 193.403 106.247 193.163 106.044 192.992C105.852 192.811 105.596 192.677 105.276 192.592C104.956 192.496 104.599 192.416 104.204 192.352C103.809 192.288 103.415 192.213 103.02 192.128C102.636 192.043 102.284 191.92 101.964 191.76C101.644 191.589 101.383 191.36 101.18 191.072C100.988 190.784 100.892 190.4 100.892 189.92C100.892 189.461 101.02 189.051 101.276 188.688C101.532 188.325 101.905 188.043 102.396 187.84C102.897 187.627 103.505 187.52 104.22 187.52C104.764 187.52 105.308 187.595 105.852 187.744C106.396 187.883 106.844 188.069 107.196 188.304L106.7 189.216C106.327 188.96 105.927 188.779 105.5 188.672C105.073 188.555 104.647 188.496 104.22 188.496C103.463 188.496 102.903 188.629 102.54 188.896C102.188 189.152 102.012 189.483 102.012 189.888C102.012 190.208 102.108 190.459 102.3 190.64C102.503 190.821 102.764 190.965 103.084 191.072C103.415 191.168 103.772 191.248 104.156 191.312C104.551 191.376 104.94 191.456 105.324 191.552C105.719 191.637 106.076 191.76 106.396 191.92C106.727 192.069 106.988 192.288 107.18 192.576C107.383 192.853 107.484 193.221 107.484 193.68C107.484 194.171 107.345 194.597 107.068 194.96C106.801 195.312 106.407 195.589 105.884 195.792C105.372 195.984 104.748 196.08 104.012 196.08Z" fill="white"/>
<circle cx="4.25" cy="14" r="3" fill="#6C63FF" stroke="white" stroke-width="2"/>
</svg>
